<?xml version="1.0" encoding="UTF-8"?>
<!DOCTYPE svg PUBLIC "-//W3C//DTD SVG 1.1//EN" "http://www.w3.org/Graphics/SVG/1.1/DTD/svg11.dtd">
<svg xmlns="http://www.w3.org/2000/svg" version="1.1" width="268px" height="72px" style="shape-rendering:geometricPrecision; text-rendering:geometricPrecision; image-rendering:optimizeQuality; fill-rule:evenodd; clip-rule:evenodd" xmlns:xlink="http://www.w3.org/1999/xlink">
<g><path style="opacity:0.6" fill="#000000" d="M -0.5,-0.5 C 21.8333,-0.5 44.1667,-0.5 66.5,-0.5C 79.0738,4.97381 84.0738,14.6405 81.5,28.5C 81.5,29.1667 81.1667,29.5 80.5,29.5C 76.8333,29.5 73.1667,29.5 69.5,29.5C 70.1976,23.9394 69.1976,18.7727 66.5,14C 64.913,13.1376 63.2464,12.4709 61.5,12C 45.1701,11.5001 28.8367,11.3334 12.5,11.5C 12.5,26.8333 12.5,42.1667 12.5,57.5C 29.8365,57.6666 47.1699,57.4999 64.5,57C 66.8147,55.8906 68.3147,54.0573 69,51.5C 69.4986,47.8484 69.6653,44.1817 69.5,40.5C 73.1667,40.5 76.8333,40.5 80.5,40.5C 81.1667,40.5 81.5,40.8333 81.5,41.5C 84.1289,53.7284 80.1289,62.8951 69.5,69C 46.2323,70.4695 22.899,70.9695 -0.5,70.5C -0.5,46.8333 -0.5,23.1667 -0.5,-0.5 Z"/></g>
<g><path style="opacity:0.6" fill="#000000" d="M 107.5,-0.5 C 129.833,-0.5 152.167,-0.5 174.5,-0.5C 174.5,3.5 174.5,7.5 174.5,11.5C 153.831,11.3334 133.164,11.5 112.5,12C 109.804,12.6898 107.637,14.1898 106,16.5C 104.71,20.7305 104.21,25.0638 104.5,29.5C 100.833,29.5 97.1667,29.5 93.5,29.5C 92.8333,29.5 92.5,29.1667 92.5,28.5C 89.9381,14.6157 94.9381,4.949 107.5,-0.5 Z"/></g>
<g><path style="opacity:0.6" fill="#000000" d="M 199.5,-0.5 C 221.833,-0.5 244.167,-0.5 266.5,-0.5C 266.5,3.5 266.5,7.5 266.5,11.5C 245.831,11.3334 225.164,11.5 204.5,12C 197.942,13.9504 195.775,18.1171 198,24.5C 199.214,26.0488 200.714,27.2155 202.5,28C 219.886,28.0561 237.219,28.7228 254.5,30C 260.836,33.1625 265.169,37.9958 267.5,44.5C 267.5,48.1667 267.5,51.8333 267.5,55.5C 264.915,63.2472 259.581,68.0806 251.5,70C 229.503,70.5 207.503,70.6666 185.5,70.5C 185.5,66.1667 185.5,61.8333 185.5,57.5C 207.169,57.6666 228.836,57.5 250.5,57C 256.769,51.6915 256.436,46.6915 249.5,42C 233.5,41.6667 217.5,41.3333 201.5,41C 187.48,37.1471 181.98,27.9805 185,13.5C 187.774,6.55693 192.607,1.89027 199.5,-0.5 Z"/></g>
<g><path style="opacity:0.6" fill="#000000" d="M 81.5,28.5 C 85.1667,28.5 88.8333,28.5 92.5,28.5C 92.5,29.1667 92.8333,29.5 93.5,29.5C 93.5,33.1667 93.5,36.8333 93.5,40.5C 92.8333,40.5 92.5,40.8333 92.5,41.5C 88.8333,41.5 85.1667,41.5 81.5,41.5C 81.5,40.8333 81.1667,40.5 80.5,40.5C 80.5,36.8333 80.5,33.1667 80.5,29.5C 81.1667,29.5 81.5,29.1667 81.5,28.5 Z"/></g>
<g><path style="opacity:0.6" fill="#000000" d="M 93.5,40.5 C 97.1667,40.5 100.833,40.5 104.5,40.5C 103.345,46.971 105.011,52.471 109.5,57C 131.164,57.5 152.831,57.6666 174.5,57.5C 174.5,61.8333 174.5,66.1667 174.5,70.5C 151.114,70.959 127.781,70.459 104.5,69C 94.0466,62.8491 90.0466,53.6824 92.5,41.5C 92.5,40.8333 92.8333,40.5 93.5,40.5 Z"/></g>
</svg>
